<svg width="14" height="14" viewBox="0 0 14 14" xmlns="http://www.w3.org/2000/svg"><title>icon</title><path d="M12.143 7c0-2.84-2.303-5.143-5.143-5.143S1.857 4.16 1.857 7 4.16 12.143 7 12.143 12.143 9.84 12.143 7zm1.714 0c0 3.787-3.07 6.857-6.857 6.857C3.213 13.857.143 10.787.143 7 .143 3.213 3.213.143 7 .143c3.787 0 6.857 3.07 6.857 6.857zM8 10c0 .553-.447 1-1 1-.553 0-1-.447-1-1 0-.553.447-1 1-1 .553 0 1 .447 1 1zm-.143-3c0 .473-.384.857-.857.857S6.143 7.473 6.143 7V4c0-.473.384-.857.857-.857s.857.384.857.857v3z" fill="#FFFFFF" fill-rule="nonzero" id="app-icon" /></svg>