<svg width="14" height="14" viewBox="0 0 14 14" xmlns="http://www.w3.org/2000/svg"><title>icon</title><path d="M10.213 9l3.393 3.394c.335.335.335.877 0 1.212-.335.335-.877.335-1.212 0L9 10.213c-.92.675-2.057 1.073-3.286 1.073-3.077 0-5.57-2.495-5.57-5.572S2.636.144 5.713.144c3.077 0 5.572 2.493 5.572 5.57 0 1.23-.398 2.366-1.073 3.287zM9.57 5.715c0-2.13-1.726-3.857-3.856-3.857S1.857 3.584 1.857 5.714 3.584 9.57 5.714 9.57 9.57 7.846 9.57 5.715z" fill="#FFFFFF" fill-rule="evenodd" id="app-icon"/></svg>