<svg id="Layer_1" xmlns="http://www.w3.org/2000/svg" width="10" height="10" viewBox="0 0 16 20"><style>.st0{fill:#ED2590;}</style><path class="st0" d="M14.2 4.5h-1.7l-4-3.4V.9c0-.3-.2-.5-.5-.5s-.5.2-.5.5v.2l-4 3.4H1.8c-.7 0-1.3.6-1.3 1.3v12.4c0 .7.6 1.3 1.3 1.3h10.9l2.8-2.8V5.8c0-.7-.6-1.3-1.3-1.3zm-1.3 1.7c0 .4-.3.7-.7.7-.4 0-.7-.3-.7-.7 0-.4.3-.7.7-.7.4 0 .7.3.7.7zM7.8 1.3c.1 0 .2.1.2.1.1 0 .2 0 .2-.1L12 4.5H4l3.8-3.2zm3 4.9c0 .4-.3.7-.7.7-.4 0-.7-.3-.7-.7 0-.4.3-.7.7-.7.4 0 .7.3.7.7zm-2.1 0c0 .4-.3.7-.7.7-.4 0-.7-.3-.7-.7 0-.4.3-.7.7-.7.4 0 .7.3.7.7zm-2.1 0c0 .4-.3.7-.7.7-.4 0-.7-.3-.7-.7 0-.4.3-.7.7-.7.4 0 .7.3.7.7zm-2.8-.7c.4 0 .7.3.7.7 0 .4-.3.7-.7.7s-.7-.3-.7-.7c0-.4.3-.7.7-.7zm11 10.9l-.1.1h-1.1c-.5 0-1 .4-1 1v1.1l-.1.1H1.8c-.3 0-.6-.3-.6-.6V7.7h13.6v8.7z"/><circle class="st0" cx="4.1" cy="15.7" r="1"/><circle class="st0" cx="4.1" cy="13.2" r="1"/><circle class="st0" cx="4.1" cy="10.7" r="1"/><path class="st0" d="M7 16.4h5.2c.3 0 .6-.3.6-.6s-.3-.6-.6-.6H7c-.4 0-.6.3-.6.6s.2.6.6.6zm0-2.6h5.2c.3 0 .6-.3.6-.6 0-.4-.3-.6-.6-.6H7c-.4 0-.6.3-.6.6 0 .4.2.6.6.6zm0-2.5h5.2c.3 0 .6-.3.6-.6s-.3-.6-.6-.6H7c-.4 0-.6.3-.6.6s.2.6.6.6z"/></svg>