<svg id="Layer_1" data-name="Layer 1" xmlns="http://www.w3.org/2000/svg" viewBox="0 0 287.89 55.07"><defs><style>.cls-1{fill:#ed2590;}.cls-2,.cls-3{fill:#ee3c96;}.cls-3{stroke:#ee3c96;stroke-miterlimit:10;stroke-width:3px;}</style></defs><title>logo</title><path class="cls-1" d="M15.53,30.1H8V27.94h7.53V17.19H18V27.94h9.17V30.1H18V59.38H15.53Z" transform="translate(-8 -6.32)"/><path class="cls-1" d="M36.23,17.32a1.92,1.92,0,1,1,1.54-.55A2.09,2.09,0,0,1,36.23,17.32ZM35,27.94h2.49V59.38H35Z" transform="translate(-8 -6.32)"/><path class="cls-1" d="M64.86,60.3a17.94,17.94,0,0,1-8.58-2,15,15,0,0,1-6-5.83,17.28,17.28,0,0,1-2.19-8.78,17.34,17.34,0,0,1,2-8.35,15.42,15.42,0,0,1,5.83-6A16.41,16.41,0,0,1,64.53,27a19.58,19.58,0,0,1,9.89,2.29L74,31.6a18.07,18.07,0,0,0-9.44-2.35A14.23,14.23,0,0,0,57.46,31a12.87,12.87,0,0,0-5,5.05,15.32,15.32,0,0,0-1.84,7.6,15.47,15.47,0,0,0,1.74,7.43,12.75,12.75,0,0,0,5,5.11,14.7,14.7,0,0,0,7.5,1.87,19.88,19.88,0,0,0,5.34-.72,17,17,0,0,0,4.62-2l.39,2.16a16.15,16.15,0,0,1-4.78,2.06A21.22,21.22,0,0,1,64.86,60.3Z" transform="translate(-8 -6.32)"/><path class="cls-2" d="M84.9,6.32h2.49V41l18.48-13.1h3.73L90,41.82l22.21,17.56h-3.8l-21-16.64V59.38H84.9Z" transform="translate(-8 -6.32)"/><path class="cls-1" d="M134.56,60.43a18.68,18.68,0,0,1-8.75-2,14.71,14.71,0,0,1-6-5.76,17.16,17.16,0,0,1-2.2-8.82,18.79,18.79,0,0,1,1.9-8.48,15.58,15.58,0,0,1,5.41-6.16,14.05,14.05,0,0,1,8-2.32,13.33,13.33,0,0,1,6.94,1.83,12.93,12.93,0,0,1,4.85,5.21,16.62,16.62,0,0,1,1.77,7.83,13.77,13.77,0,0,1-.2,2.23H120q.12,6.61,4.09,10.41t10.65,3.8a21.26,21.26,0,0,0,10.54-2.75l.46,2.23a19.32,19.32,0,0,1-5.11,2A25.14,25.14,0,0,1,134.56,60.43ZM144.12,42a15.45,15.45,0,0,0-1.37-6.64,10.71,10.71,0,0,0-4-4.59,11.13,11.13,0,0,0-6.09-1.67,11.3,11.3,0,0,0-5.86,1.6,13,13,0,0,0-4.52,4.56,15.71,15.71,0,0,0-2.2,6.74Z" transform="translate(-8 -6.32)"/><path class="cls-1" d="M158.93,30.1h-7.54V27.94h7.54V17.19h2.42V27.94h9.17V30.1h-9.17V59.38h-2.42Z" transform="translate(-8 -6.32)"/><path class="cls-3" d="M196.52,59.88a18.57,18.57,0,0,1-9.1-2.2,15.92,15.92,0,0,1-6.33-6.3,19,19,0,0,1-2.31-9.47A19.11,19.11,0,0,1,181,32.69a15.75,15.75,0,0,1,6.29-6.35A19,19,0,0,1,196.75,24a20.6,20.6,0,0,1,10,2.47l-.46,1.7a20.31,20.31,0,0,0-9.67-2.39,17,17,0,0,0-8.23,2,14.26,14.26,0,0,0-5.67,5.57,17,17,0,0,0-2.06,8.49,17.63,17.63,0,0,0,1.93,8.32A14.26,14.26,0,0,0,188.18,56a16.12,16.12,0,0,0,8.34,2.14,23.58,23.58,0,0,0,5.37-.65,22,22,0,0,0,4.86-1.69l.32,1.69a20,20,0,0,1-5,1.79A24.87,24.87,0,0,1,196.52,59.88Z" transform="translate(-8 -6.32)"/><path class="cls-3" d="M219.17,24.53H221V59.38h-1.84Z" transform="translate(-8 -6.32)"/><path class="cls-3" d="M243.39,26.23H231.46v-1.7h25.68v1.7H245.22V59.38h-1.83Z" transform="translate(-8 -6.32)"/><path class="cls-3" d="M277.73,43.65,264.39,24.53h2.2l12.15,17.52,12.2-17.52H293L279.56,43.65V59.38h-1.83Z" transform="translate(-8 -6.32)"/></svg>